<svg width="16" height="17" viewBox="0 0 16 17" fill="none" xmlns="http://www.w3.org/2000/svg">
<path fill-rule="evenodd" clip-rule="evenodd" d="M9.306 12.5156C8.86133 12.9403 8.27267 13.171 7.64733 13.167H7.64667C7.022 13.1616 6.43733 12.921 6 12.4896C5.10067 11.6036 5.11267 10.1716 6.02733 9.29895L7.46933 7.92028C7.52867 7.86362 7.60867 7.83295 7.69267 7.83362V7.83362C7.776 7.83428 7.856 7.86628 7.914 7.92362L9.33333 9.32429C10.2327 10.211 10.2207 11.6423 9.306 12.5156M11.204 5.82428L8.142 2.69695C7.88733 2.43628 7.46267 2.43628 7.19867 2.68695C7.056 2.82295 6.98 3.01562 6.99267 3.21228C6.99867 3.30562 6.99867 3.39762 6.99867 3.49628C6.99867 5.20095 6.57 6.20895 6.33333 6.45828C6.23267 6.34762 6.05 6.05695 5.896 5.46295C5.836 5.23095 5.656 5.04895 5.42467 4.98628C5.192 4.92495 4.94533 4.99095 4.77667 5.16095L4.12067 5.82295C2.18 7.80095 2.18267 11.0236 4.126 13.0043C5.068 13.9683 6.32333 14.499 7.66133 14.5003H7.66667C9.006 14.5003 10.264 13.9696 11.21 13.005C13.1547 11.0236 13.1513 7.80095 11.204 5.82428" fill="white"/>
<mask id="mask0" mask-type="alpha" maskUnits="userSpaceOnUse" x="2" y="2" width="11" height="13">
<path fill-rule="evenodd" clip-rule="evenodd" d="M9.306 12.5156C8.86133 12.9403 8.27267 13.171 7.64733 13.167H7.64667C7.022 13.1616 6.43733 12.921 6 12.4896C5.10067 11.6036 5.11267 10.1716 6.02733 9.29895L7.46933 7.92028C7.52867 7.86362 7.60867 7.83295 7.69267 7.83362V7.83362C7.776 7.83428 7.856 7.86628 7.914 7.92362L9.33333 9.32429C10.2327 10.211 10.2207 11.6423 9.306 12.5156M11.204 5.82428L8.142 2.69695C7.88733 2.43628 7.46267 2.43628 7.19867 2.68695C7.056 2.82295 6.98 3.01562 6.99267 3.21228C6.99867 3.30562 6.99867 3.39762 6.99867 3.49628C6.99867 5.20095 6.57 6.20895 6.33333 6.45828C6.23267 6.34762 6.05 6.05695 5.896 5.46295C5.836 5.23095 5.656 5.04895 5.42467 4.98628C5.192 4.92495 4.94533 4.99095 4.77667 5.16095L4.12067 5.82295C2.18 7.80095 2.18267 11.0236 4.126 13.0043C5.068 13.9683 6.32333 14.499 7.66133 14.5003H7.66667C9.006 14.5003 10.264 13.9696 11.21 13.005C13.1547 11.0236 13.1513 7.80095 11.204 5.82428" fill="white"/>
</mask>
<g mask="url(#mask0)">
</g>
</svg>
